<svg xmlns="http://www.w3.org/2000/svg" xmlns:xlink="http://www.w3.org/1999/xlink" width="500" zoomAndPan="magnify" viewBox="0 0 375 374.999991" height="500" preserveAspectRatio="xMidYMid meet" version="1.0"><defs><g/><clipPath id="4f3a8c3929"><path d="M 24 128.523438 L 140.835938 128.523438 L 140.835938 246.273438 L 24 246.273438 Z M 24 128.523438 " clip-rule="nonzero"/></clipPath><clipPath id="ca9ea63b51"><path d="M 259.644531 160.679688 L 268.902344 160.679688 L 268.902344 169.554688 L 259.644531 169.554688 Z M 259.644531 160.679688 " clip-rule="nonzero"/></clipPath><clipPath id="ba93264ab8"><path d="M 264.273438 160.679688 C 261.714844 160.679688 259.644531 162.667969 259.644531 165.117188 C 259.644531 167.570312 261.714844 169.554688 264.273438 169.554688 C 266.828125 169.554688 268.898438 167.570312 268.898438 165.117188 C 268.898438 162.667969 266.828125 160.679688 264.273438 160.679688 Z M 264.273438 160.679688 " clip-rule="nonzero"/></clipPath><clipPath id="2eb53e5f23"><path d="M 226 153 L 247 153 L 247 160 L 226 160 Z M 226 153 " clip-rule="nonzero"/></clipPath><clipPath id="bc3465331a"><path d="M 226.773438 158.203125 L 227.117188 153.304688 L 246.558594 154.671875 L 246.214844 159.570312 Z M 226.773438 158.203125 " clip-rule="nonzero"/></clipPath><clipPath id="b9bb12f779"><path d="M 226.945312 155.753906 C 227.042969 154.402344 228.214844 153.382812 229.566406 153.476562 L 244.101562 154.5 C 245.457031 154.59375 246.476562 155.769531 246.378906 157.121094 C 246.285156 158.472656 245.109375 159.492188 243.757812 159.398438 L 229.222656 158.375 C 227.871094 158.28125 226.851562 157.105469 226.945312 155.753906 Z M 226.945312 155.753906 " clip-rule="nonzero"/></clipPath><clipPath id="ef79e856ec"><path d="M 232 132 L 250 132 L 250 145 L 232 145 Z M 232 132 " clip-rule="nonzero"/></clipPath><clipPath id="6d127ddd10"><path d="M 231.265625 135.996094 L 233.710938 131.738281 L 250.613281 141.441406 L 248.167969 145.699219 Z M 231.265625 135.996094 " clip-rule="nonzero"/></clipPath><clipPath id="3f724ac6ff"><path d="M 232.488281 133.867188 C 233.160156 132.691406 234.664062 132.285156 235.839844 132.960938 L 248.476562 140.214844 C 249.652344 140.890625 250.058594 142.390625 249.382812 143.566406 C 248.707031 144.742188 247.207031 145.148438 246.03125 144.472656 L 233.394531 137.21875 C 232.21875 136.542969 231.8125 135.042969 232.488281 133.867188 Z M 232.488281 133.867188 " clip-rule="nonzero"/></clipPath><clipPath id="71202d12be"><path d="M 245 116 L 259 116 L 259 134 L 245 134 Z M 245 116 " clip-rule="nonzero"/></clipPath><clipPath id="2275e66a47"><path d="M 244.53125 118.523438 L 248.546875 115.695312 L 259.773438 131.625 L 255.761719 134.453125 Z M 244.53125 118.523438 " clip-rule="nonzero"/></clipPath><clipPath id="0249b15c32"><path d="M 246.539062 117.109375 C 247.648438 116.328125 249.179688 116.59375 249.960938 117.699219 L 258.355469 129.609375 C 259.136719 130.71875 258.871094 132.25 257.765625 133.03125 C 256.65625 133.8125 255.125 133.546875 254.34375 132.4375 L 245.945312 120.53125 C 245.164062 119.421875 245.429688 117.890625 246.539062 117.109375 Z M 246.539062 117.109375 " clip-rule="nonzero"/></clipPath><clipPath id="afaa61646c"><path d="M 264 108 L 272 108 L 272 129 L 264 129 Z M 264 108 " clip-rule="nonzero"/></clipPath><clipPath id="dc3a7efe75"><path d="M 263.816406 109.414062 L 268.636719 108.472656 L 272.363281 127.605469 L 267.542969 128.542969 Z M 263.816406 109.414062 " clip-rule="nonzero"/></clipPath><clipPath id="90b5a84527"><path d="M 266.226562 108.945312 C 267.558594 108.683594 268.847656 109.554688 269.105469 110.882812 L 271.894531 125.1875 C 272.152344 126.515625 271.285156 127.804688 269.953125 128.066406 C 268.621094 128.324219 267.332031 127.457031 267.074219 126.125 L 264.285156 111.824219 C 264.027344 110.492188 264.894531 109.203125 266.226562 108.945312 Z M 266.226562 108.945312 " clip-rule="nonzero"/></clipPath><clipPath id="beeb3108fc"><path d="M 296 118 L 310 118 L 310 136 L 296 136 Z M 296 118 " clip-rule="nonzero"/></clipPath><clipPath id="7e2f01d1be"><path d="M 306.738281 117.433594 L 310.804688 120.1875 L 299.882812 136.328125 L 295.8125 133.574219 Z M 306.738281 117.433594 " clip-rule="nonzero"/></clipPath><clipPath id="1600610ca9"><path d="M 308.769531 118.808594 C 309.894531 119.570312 310.1875 121.097656 309.429688 122.21875 L 301.261719 134.285156 C 300.5 135.410156 298.976562 135.703125 297.851562 134.945312 C 296.730469 134.183594 296.433594 132.65625 297.195312 131.535156 L 305.359375 119.46875 C 306.121094 118.34375 307.648438 118.050781 308.769531 118.808594 Z M 308.769531 118.808594 " clip-rule="nonzero"/></clipPath><clipPath id="c9ba005d95"><path d="M 305 132 L 323 132 L 323 147 L 305 147 Z M 305 132 " clip-rule="nonzero"/></clipPath><clipPath id="a9053e6e03"><path d="M 320.796875 131.957031 L 323.605469 135.984375 L 307.625 147.136719 L 304.8125 143.109375 Z M 320.796875 131.957031 " clip-rule="nonzero"/></clipPath><clipPath id="acff68f213"><path d="M 322.203125 133.96875 C 322.976562 135.082031 322.707031 136.613281 321.59375 137.390625 L 309.644531 145.726562 C 308.53125 146.503906 307 146.230469 306.226562 145.121094 C 305.449219 144.007812 305.722656 142.476562 306.832031 141.699219 L 318.78125 133.363281 C 319.894531 132.585938 321.425781 132.859375 322.203125 133.96875 Z M 322.203125 133.96875 " clip-rule="nonzero"/></clipPath><clipPath id="25c5da43d5"><path d="M 309 153 L 329 153 L 329 160 L 309 160 Z M 309 153 " clip-rule="nonzero"/></clipPath><clipPath id="daedbd0dd9"><path d="M 328.722656 153.269531 L 329.066406 158.171875 L 309.625 159.535156 L 309.28125 154.636719 Z M 328.722656 153.269531 " clip-rule="nonzero"/></clipPath><clipPath id="cf7830b2d0"><path d="M 328.894531 155.722656 C 328.992188 157.074219 327.972656 158.246094 326.617188 158.34375 L 312.082031 159.363281 C 310.730469 159.457031 309.558594 158.4375 309.460938 157.085938 C 309.367188 155.730469 310.386719 154.558594 311.738281 154.460938 L 326.273438 153.441406 C 327.628906 153.347656 328.800781 154.367188 328.894531 155.722656 Z M 328.894531 155.722656 " clip-rule="nonzero"/></clipPath><clipPath id="d352d595c0"><path d="M 306 168 L 325 168 L 325 180 L 306 180 Z M 306 168 " clip-rule="nonzero"/></clipPath><clipPath id="f12fb4bd83"><path d="M 325.183594 175.714844 L 323.21875 180.214844 L 305.355469 172.421875 L 307.320312 167.921875 Z M 325.183594 175.714844 " clip-rule="nonzero"/></clipPath><clipPath id="729eddb7db"><path d="M 324.203125 177.964844 C 323.660156 179.207031 322.210938 179.777344 320.96875 179.234375 L 307.613281 173.410156 C 306.371094 172.867188 305.800781 171.417969 306.34375 170.175781 C 306.886719 168.933594 308.335938 168.363281 309.578125 168.90625 L 322.933594 174.734375 C 324.175781 175.273438 324.742188 176.722656 324.203125 177.964844 Z M 324.203125 177.964844 " clip-rule="nonzero"/></clipPath><clipPath id="e59dcf7b50"><path d="M 282 110 L 291 110 L 291 130 L 282 130 Z M 282 110 " clip-rule="nonzero"/></clipPath><clipPath id="c63df67e19"><path d="M 285.839844 109.617188 L 290.675781 110.476562 L 287.265625 129.667969 L 282.429688 128.808594 Z M 285.839844 109.617188 " clip-rule="nonzero"/></clipPath><clipPath id="55458dadd9"><path d="M 288.257812 110.046875 C 289.59375 110.285156 290.484375 111.558594 290.246094 112.894531 L 287.695312 127.242188 C 287.460938 128.578125 286.183594 129.46875 284.847656 129.230469 C 283.515625 128.992188 282.625 127.71875 282.863281 126.382812 L 285.410156 112.035156 C 285.648438 110.699219 286.921875 109.8125 288.257812 110.046875 Z M 288.257812 110.046875 " clip-rule="nonzero"/></clipPath></defs><g clip-path="url(#4f3a8c3929)"><path fill="#0067ad" d="M 91.40625 246.28125 C 91.023438 246.390625 90.628906 246.441406 90.230469 246.425781 C 87.300781 246.308594 85.242188 242.605469 85.644531 238.15625 C 86.171875 233.054688 86.734375 227.941406 87.328125 222.824219 C 87.542969 220.851562 88.101562 218.980469 89.003906 217.214844 C 89.90625 215.449219 91.09375 213.902344 92.5625 212.574219 L 93.5 211.761719 C 96.050781 209.496094 98.613281 207.097656 101.1875 204.5625 C 104.308594 201.507812 107.644531 198.457031 111.199219 195.410156 C 113.242188 193.660156 116.324219 193.296875 118.019531 194.578125 C 119.683594 195.835938 119.25 198.296875 117.289062 200.074219 C 113.570312 203.382812 110.09375 206.707031 106.855469 210.039062 C 107.984375 209.386719 109.132812 208.742188 110.296875 208.09375 C 117.039062 204.308594 123.175781 198.0625 125.804688 191.382812 L 128.175781 185.269531 C 129.148438 182.730469 132.648438 180.679688 136.023438 180.6875 C 139.398438 180.695312 141.199219 182.722656 140.058594 185.257812 C 138.59375 188.542969 137.128906 191.828125 135.664062 195.117188 C 131.867188 203.632812 124.601562 211.957031 116.945312 218.472656 C 115.367188 219.808594 113.84375 221.140625 112.367188 222.480469 C 107.953125 226.453125 104.496094 231.136719 102 236.527344 C 99.71875 241.324219 96.144531 244.992188 92.71875 245.929688 Z M 73.644531 246.28125 L 72.34375 245.9375 C 68.921875 245 65.34375 241.332031 63.066406 236.535156 C 60.566406 231.144531 57.109375 226.460938 52.691406 222.488281 C 51.226562 221.144531 49.703125 219.808594 48.117188 218.480469 C 40.457031 211.988281 33.195312 203.640625 29.394531 195.148438 C 27.929688 191.863281 26.464844 188.574219 25 185.285156 C 23.882812 182.703125 25.667969 180.703125 29.074219 180.695312 C 32.476562 180.6875 35.949219 182.738281 36.921875 185.277344 L 39.292969 191.390625 C 41.921875 198.070312 48.078125 204.316406 54.800781 208.101562 C 55.964844 208.75 57.113281 209.394531 58.242188 210.046875 C 55.003906 206.71875 51.527344 203.398438 47.808594 200.082031 C 45.808594 198.304688 45.378906 195.84375 47.039062 194.585938 C 48.722656 193.304688 51.820312 193.667969 53.863281 195.417969 C 57.421875 198.464844 60.757812 201.515625 63.871094 204.570312 C 66.445312 207.074219 69 209.472656 71.535156 211.761719 L 72.472656 212.601562 C 73.945312 213.929688 75.132812 215.480469 76.035156 217.246094 C 76.9375 219.011719 77.496094 220.878906 77.710938 222.851562 C 78.304688 227.96875 78.867188 233.078125 79.394531 238.183594 C 79.796875 242.636719 77.722656 246.339844 74.808594 246.457031 C 74.414062 246.457031 74.023438 246.398438 73.644531 246.28125 Z M 71.710938 159.84375 L 92.542969 159.84375 C 97.667969 159.84375 102.207031 162.039062 104.460938 165.246094 L 82.519531 174.648438 L 60.554688 165.21875 C 62.515625 162.027344 66.640625 159.84375 71.710938 159.84375 Z M 82.578125 157.164062 C 81.636719 157.160156 80.707031 157.066406 79.789062 156.878906 C 78.867188 156.691406 77.972656 156.417969 77.105469 156.054688 C 76.238281 155.695312 75.414062 155.25 74.636719 154.726562 C 73.855469 154.203125 73.136719 153.605469 72.472656 152.9375 C 71.808594 152.273438 71.21875 151.546875 70.699219 150.765625 C 70.179688 149.984375 69.742188 149.15625 69.382812 148.289062 C 69.027344 147.417969 68.757812 146.523438 68.578125 145.601562 C 68.394531 144.679688 68.304688 143.75 68.308594 142.808594 C 68.3125 141.871094 68.40625 140.9375 68.589844 140.019531 C 68.773438 139.097656 69.046875 138.203125 69.410156 137.335938 C 69.769531 136.46875 70.214844 135.644531 70.738281 134.863281 C 71.261719 134.082031 71.855469 133.363281 72.519531 132.699219 C 73.1875 132.035156 73.910156 131.445312 74.691406 130.921875 C 75.472656 130.402344 76.300781 129.960938 77.167969 129.605469 C 78.035156 129.246094 78.933594 128.976562 79.855469 128.792969 C 80.777344 128.613281 81.707031 128.519531 82.644531 128.523438 C 83.585938 128.523438 84.515625 128.617188 85.4375 128.800781 C 86.359375 128.984375 87.253906 129.257812 88.121094 129.617188 C 88.988281 129.976562 89.8125 130.417969 90.59375 130.941406 C 91.375 131.464844 92.097656 132.058594 92.761719 132.722656 C 93.425781 133.386719 94.019531 134.109375 94.539062 134.890625 C 95.0625 135.675781 95.503906 136.5 95.863281 137.367188 C 96.222656 138.234375 96.492188 139.128906 96.675781 140.050781 C 96.859375 140.972656 96.949219 141.902344 96.949219 142.84375 C 96.949219 143.785156 96.855469 144.71875 96.667969 145.640625 C 96.484375 146.566406 96.210938 147.460938 95.847656 148.332031 C 95.484375 149.199219 95.042969 150.027344 94.515625 150.808594 C 93.992188 151.589844 93.394531 152.3125 92.730469 152.980469 C 92.0625 153.644531 91.335938 154.238281 90.550781 154.757812 C 89.769531 155.28125 88.941406 155.722656 88.070312 156.082031 C 87.199219 156.441406 86.300781 156.710938 85.378906 156.894531 C 84.453125 157.074219 83.519531 157.164062 82.578125 157.164062 Z M 82.519531 203.539062 L 57.976562 190.953125 C 57.789062 190.847656 57.667969 190.6875 57.617188 190.476562 L 53.085938 166.382812 C 53.058594 166.226562 53.070312 166.074219 53.128906 165.929688 C 53.210938 165.738281 53.34375 165.609375 53.53125 165.53125 C 53.722656 165.457031 53.910156 165.457031 54.097656 165.539062 L 82.519531 177.722656 L 110.949219 165.539062 C 111.136719 165.457031 111.324219 165.457031 111.511719 165.53125 C 111.703125 165.609375 111.835938 165.738281 111.914062 165.929688 C 111.980469 166.074219 111.992188 166.226562 111.960938 166.382812 L 107.414062 190.476562 C 107.363281 190.6875 107.242188 190.847656 107.054688 190.953125 Z M 82.519531 203.539062 " fill-opacity="1" fill-rule="nonzero"/></g><g fill="#008ed1" fill-opacity="1"><g transform="translate(148.499102, 196.17381)"><g><path d="M 3.890625 -3.28125 L 3.890625 -29.125 C 3.890625 -30.113281 4.234375 -30.953125 4.921875 -31.640625 C 5.617188 -32.335938 6.460938 -32.6875 7.453125 -32.6875 C 8.441406 -32.6875 9.28125 -32.335938 9.96875 -31.640625 C 10.664062 -30.953125 11.015625 -30.113281 11.015625 -29.125 L 11.015625 -19.578125 L 24.171875 -19.578125 L 24.171875 -29.125 C 24.171875 -30.113281 24.515625 -30.953125 25.203125 -31.640625 C 25.898438 -32.335938 26.742188 -32.6875 27.734375 -32.6875 C 28.722656 -32.6875 29.5625 -32.335938 30.25 -31.640625 C 30.945312 -30.953125 31.296875 -30.113281 31.296875 -29.125 L 31.296875 -3.28125 C 31.296875 -2.300781 30.945312 -1.460938 30.25 -0.765625 C 29.5625 -0.0664062 28.722656 0.28125 27.734375 0.28125 C 26.742188 0.28125 25.898438 -0.0664062 25.203125 -0.765625 C 24.515625 -1.460938 24.171875 -2.300781 24.171875 -3.28125 L 24.171875 -13.015625 L 11.015625 -13.015625 L 11.015625 -3.28125 C 11.015625 -2.300781 10.664062 -1.460938 9.96875 -0.765625 C 9.28125 -0.0664062 8.441406 0.28125 7.453125 0.28125 C 6.460938 0.28125 5.617188 -0.0664062 4.921875 -0.765625 C 4.234375 -1.460938 3.890625 -2.300781 3.890625 -3.28125 Z M 3.890625 -3.28125 "/></g></g></g><g fill="#008ed1" fill-opacity="1"><g transform="translate(183.678764, 196.17381)"><g><path d="M 1.671875 -7.21875 C 1.671875 -8.582031 1.914062 -9.753906 2.40625 -10.734375 C 2.894531 -11.722656 3.578125 -12.539062 4.453125 -13.1875 C 5.335938 -13.84375 6.390625 -14.332031 7.609375 -14.65625 C 8.828125 -14.976562 10.179688 -15.140625 11.671875 -15.140625 C 12.960938 -15.140625 14.070312 -15.046875 15 -14.859375 C 15.925781 -14.671875 16.835938 -14.425781 17.734375 -14.125 L 17.734375 -14.53125 C 17.734375 -17.5625 15.957031 -19.078125 12.40625 -19.078125 C 11.414062 -19.078125 10.507812 -19.046875 9.6875 -18.984375 C 8.875 -18.921875 8.160156 -18.71875 7.546875 -18.375 C 7.296875 -18.25 6.957031 -18.1875 6.53125 -18.1875 C 5.726562 -18.1875 5.039062 -18.460938 4.46875 -19.015625 C 3.894531 -19.578125 3.609375 -20.257812 3.609375 -21.0625 C 3.609375 -21.675781 3.785156 -22.226562 4.140625 -22.71875 C 4.492188 -23.21875 4.953125 -23.578125 5.515625 -23.796875 C 6.617188 -24.222656 7.796875 -24.546875 9.046875 -24.765625 C 10.296875 -24.984375 11.753906 -25.09375 13.421875 -25.09375 C 17.066406 -25.09375 19.820312 -24.21875 21.6875 -22.46875 C 23.550781 -20.726562 24.484375 -18.035156 24.484375 -14.390625 L 24.484375 -3.109375 C 24.484375 -2.148438 24.148438 -1.34375 23.484375 -0.6875 C 22.828125 -0.0390625 22.019531 0.28125 21.0625 0.28125 C 20.039062 0.28125 19.222656 -0.0195312 18.609375 -0.625 C 17.992188 -1.226562 17.6875 -1.898438 17.6875 -2.640625 L 17.6875 -2.6875 C 16.820312 -1.726562 15.796875 -0.960938 14.609375 -0.390625 C 13.421875 0.179688 11.945312 0.46875 10.1875 0.46875 C 9.007812 0.46875 7.90625 0.304688 6.875 -0.015625 C 5.84375 -0.347656 4.941406 -0.835938 4.171875 -1.484375 C 3.398438 -2.128906 2.789062 -2.921875 2.34375 -3.859375 C 1.894531 -4.804688 1.671875 -5.894531 1.671875 -7.125 Z M 8.46875 -7.5 L 8.46875 -7.40625 C 8.46875 -6.445312 8.820312 -5.703125 9.53125 -5.171875 C 10.25 -4.648438 11.175781 -4.390625 12.3125 -4.390625 C 13.976562 -4.390625 15.3125 -4.789062 16.3125 -5.59375 C 17.320312 -6.40625 17.828125 -7.457031 17.828125 -8.75 L 17.828125 -10 C 17.203125 -10.28125 16.507812 -10.503906 15.75 -10.671875 C 15 -10.835938 14.191406 -10.921875 13.328125 -10.921875 C 11.816406 -10.921875 10.628906 -10.628906 9.765625 -10.046875 C 8.898438 -9.460938 8.46875 -8.613281 8.46875 -7.5 Z M 8.46875 -7.5 "/></g></g></g><g fill="#008ed1" fill-opacity="1"><g transform="translate(211.081869, 196.17381)"><g><path d="M 3.140625 -3.234375 L 3.140625 -21.578125 C 3.140625 -22.566406 3.476562 -23.398438 4.15625 -24.078125 C 4.84375 -24.753906 5.679688 -25.09375 6.671875 -25.09375 C 7.648438 -25.09375 8.476562 -24.753906 9.15625 -24.078125 C 9.84375 -23.398438 10.1875 -22.566406 10.1875 -21.578125 L 10.1875 -20.46875 C 10.707031 -21.664062 11.367188 -22.734375 12.171875 -23.671875 C 12.972656 -24.617188 13.898438 -25.09375 14.953125 -25.09375 C 16.035156 -25.09375 16.875 -24.765625 17.46875 -24.109375 C 18.070312 -23.460938 18.375 -22.648438 18.375 -21.671875 C 18.375 -20.742188 18.113281 -20.007812 17.59375 -19.46875 C 17.070312 -18.925781 16.453125 -18.5625 15.734375 -18.375 C 13.953125 -17.914062 12.582031 -17 11.625 -15.625 C 10.664062 -14.25 10.1875 -12.3125 10.1875 -9.8125 L 10.1875 -3.234375 C 10.1875 -2.253906 9.84375 -1.421875 9.15625 -0.734375 C 8.476562 -0.0546875 7.648438 0.28125 6.671875 0.28125 C 5.679688 0.28125 4.84375 -0.0546875 4.15625 -0.734375 C 3.476562 -1.421875 3.140625 -2.253906 3.140625 -3.234375 Z M 3.140625 -3.234375 "/></g></g></g><g fill="#008ed1" fill-opacity="1"><g transform="translate(230.43068, 196.17381)"><g><path d="M 4.90625 -25.09375 C 5.863281 -25.09375 6.613281 -24.851562 7.15625 -24.375 C 7.695312 -23.894531 8.085938 -23.300781 8.328125 -22.59375 L 13.65625 -8.1875 L 19.078125 -22.6875 C 19.316406 -23.300781 19.691406 -23.851562 20.203125 -24.34375 C 20.710938 -24.84375 21.429688 -25.09375 22.359375 -25.09375 C 23.285156 -25.09375 24.078125 -24.773438 24.734375 -24.140625 C 25.398438 -23.503906 25.734375 -22.710938 25.734375 -21.765625 C 25.734375 -21.453125 25.6875 -21.132812 25.59375 -20.8125 C 25.507812 -20.488281 25.4375 -20.25 25.375 -20.09375 L 17.78125 -2.546875 C 17.375 -1.648438 16.847656 -0.914062 16.203125 -0.34375 C 15.554688 0.226562 14.753906 0.515625 13.796875 0.515625 L 13.421875 0.515625 C 12.460938 0.515625 11.660156 0.238281 11.015625 -0.3125 C 10.367188 -0.875 9.84375 -1.617188 9.4375 -2.546875 L 1.859375 -20.09375 C 1.765625 -20.34375 1.675781 -20.601562 1.59375 -20.875 C 1.519531 -21.15625 1.484375 -21.46875 1.484375 -21.8125 C 1.484375 -22.644531 1.8125 -23.398438 2.46875 -24.078125 C 3.132812 -24.753906 3.945312 -25.09375 4.90625 -25.09375 Z M 4.90625 -25.09375 "/></g></g></g><g fill="#008ed1" fill-opacity="1"><g transform="translate(257.648631, 196.17381)"><g><path d="M 6.984375 -25.09375 C 7.972656 -25.09375 8.804688 -24.753906 9.484375 -24.078125 C 10.171875 -23.398438 10.515625 -22.566406 10.515625 -21.578125 L 10.515625 -3.234375 C 10.515625 -2.253906 10.171875 -1.421875 9.484375 -0.734375 C 8.804688 -0.0546875 7.972656 0.28125 6.984375 0.28125 C 6.003906 0.28125 5.171875 -0.0546875 4.484375 -0.734375 C 3.804688 -1.421875 3.46875 -2.253906 3.46875 -3.234375 L 3.46875 -21.578125 C 3.46875 -22.566406 3.804688 -23.398438 4.484375 -24.078125 C 5.171875 -24.753906 6.003906 -25.09375 6.984375 -25.09375 Z M 6.984375 -34.03125 C 8.097656 -34.03125 9.03125 -33.734375 9.78125 -33.140625 C 10.539062 -32.554688 10.921875 -31.753906 10.921875 -30.734375 L 10.921875 -30.65625 C 10.921875 -29.632812 10.539062 -28.820312 9.78125 -28.21875 C 9.03125 -27.613281 8.097656 -27.3125 6.984375 -27.3125 C 5.878906 -27.3125 4.945312 -27.613281 4.1875 -28.21875 C 3.4375 -28.820312 3.0625 -29.632812 3.0625 -30.65625 L 3.0625 -30.734375 C 3.0625 -31.753906 3.4375 -32.554688 4.1875 -33.140625 C 4.945312 -33.734375 5.878906 -34.03125 6.984375 -34.03125 Z M 6.984375 -34.03125 "/></g></g></g><g fill="#008ed1" fill-opacity="1"><g transform="translate(271.62792, 196.17381)"><g><path d="M 6.671875 -25.09375 C 7.648438 -25.09375 8.476562 -24.753906 9.15625 -24.078125 C 9.84375 -23.398438 10.1875 -22.566406 10.1875 -21.578125 L 10.1875 -21.296875 C 10.988281 -22.347656 11.957031 -23.273438 13.09375 -24.078125 C 14.238281 -24.878906 15.691406 -25.28125 17.453125 -25.28125 C 20.171875 -25.28125 22.253906 -24.46875 23.703125 -22.84375 C 25.148438 -21.226562 25.875 -18.96875 25.875 -16.0625 L 25.875 -3.234375 C 25.875 -2.253906 25.535156 -1.421875 24.859375 -0.734375 C 24.179688 -0.0546875 23.347656 0.28125 22.359375 0.28125 C 21.367188 0.28125 20.535156 -0.0546875 19.859375 -0.734375 C 19.179688 -1.421875 18.84375 -2.253906 18.84375 -3.234375 L 18.84375 -13.84375 C 18.84375 -17.207031 17.421875 -18.890625 14.578125 -18.890625 C 13.191406 -18.890625 12.113281 -18.460938 11.34375 -17.609375 C 10.570312 -16.765625 10.1875 -15.507812 10.1875 -13.84375 L 10.1875 -3.234375 C 10.1875 -2.253906 9.84375 -1.421875 9.15625 -0.734375 C 8.476562 -0.0546875 7.648438 0.28125 6.671875 0.28125 C 5.679688 0.28125 4.84375 -0.0546875 4.15625 -0.734375 C 3.476562 -1.421875 3.140625 -2.253906 3.140625 -3.234375 L 3.140625 -21.578125 C 3.140625 -22.566406 3.476562 -23.398438 4.15625 -24.078125 C 4.84375 -24.753906 5.679688 -25.09375 6.671875 -25.09375 Z M 6.671875 -25.09375 "/></g></g></g><g fill="#008ed1" fill-opacity="1"><g transform="translate(300.465977, 196.17381)"><g><path d="M 2.59375 -3.75 C 2.59375 -4.863281 2.96875 -5.796875 3.71875 -6.546875 C 4.476562 -7.304688 5.445312 -7.6875 6.625 -7.6875 C 7.789062 -7.6875 8.75 -7.304688 9.5 -6.546875 C 10.257812 -5.796875 10.640625 -4.863281 10.640625 -3.75 L 10.640625 -3.65625 C 10.640625 -2.539062 10.257812 -1.601562 9.5 -0.84375 C 8.75 -0.09375 7.789062 0.28125 6.625 0.28125 C 5.445312 0.28125 4.476562 -0.09375 3.71875 -0.84375 C 2.96875 -1.601562 2.59375 -2.539062 2.59375 -3.65625 Z M 2.59375 -3.75 "/></g></g></g><g clip-path="url(#ca9ea63b51)"><g clip-path="url(#ba93264ab8)"><path fill="#ff914d" d="M 259.644531 160.679688 L 268.902344 160.679688 L 268.902344 169.554688 L 259.644531 169.554688 Z M 259.644531 160.679688 " fill-opacity="1" fill-rule="nonzero"/></g></g><g clip-path="url(#2eb53e5f23)"><g clip-path="url(#bc3465331a)"><g clip-path="url(#b9bb12f779)"><path fill="#ff7d2e" d="M 226.773438 158.203125 L 227.117188 153.304688 L 246.558594 154.671875 L 246.214844 159.570312 Z M 226.773438 158.203125 " fill-opacity="1" fill-rule="nonzero"/></g></g></g><g clip-path="url(#ef79e856ec)"><g clip-path="url(#6d127ddd10)"><g clip-path="url(#3f724ac6ff)"><path fill="#ff7d2e" d="M 231.265625 135.996094 L 233.710938 131.738281 L 250.613281 141.441406 L 248.167969 145.699219 Z M 231.265625 135.996094 " fill-opacity="1" fill-rule="nonzero"/></g></g></g><g clip-path="url(#71202d12be)"><g clip-path="url(#2275e66a47)"><g clip-path="url(#0249b15c32)"><path fill="#ff7d2e" d="M 244.53125 118.523438 L 248.546875 115.695312 L 259.773438 131.625 L 255.761719 134.453125 Z M 244.53125 118.523438 " fill-opacity="1" fill-rule="nonzero"/></g></g></g><g clip-path="url(#afaa61646c)"><g clip-path="url(#dc3a7efe75)"><g clip-path="url(#90b5a84527)"><path fill="#ff7d2e" d="M 263.816406 109.414062 L 268.636719 108.472656 L 272.363281 127.605469 L 267.542969 128.542969 Z M 263.816406 109.414062 " fill-opacity="1" fill-rule="nonzero"/></g></g></g><g clip-path="url(#beeb3108fc)"><g clip-path="url(#7e2f01d1be)"><g clip-path="url(#1600610ca9)"><path fill="#ff7d2e" d="M 306.738281 117.433594 L 310.804688 120.1875 L 299.882812 136.328125 L 295.8125 133.574219 Z M 306.738281 117.433594 " fill-opacity="1" fill-rule="nonzero"/></g></g></g><g clip-path="url(#c9ba005d95)"><g clip-path="url(#a9053e6e03)"><g clip-path="url(#acff68f213)"><path fill="#ff7d2e" d="M 320.796875 131.957031 L 323.605469 135.984375 L 307.625 147.136719 L 304.8125 143.109375 Z M 320.796875 131.957031 " fill-opacity="1" fill-rule="nonzero"/></g></g></g><g clip-path="url(#25c5da43d5)"><g clip-path="url(#daedbd0dd9)"><g clip-path="url(#cf7830b2d0)"><path fill="#ff7d2e" d="M 328.722656 153.269531 L 329.066406 158.171875 L 309.625 159.535156 L 309.28125 154.636719 Z M 328.722656 153.269531 " fill-opacity="1" fill-rule="nonzero"/></g></g></g><g clip-path="url(#d352d595c0)"><g clip-path="url(#f12fb4bd83)"><g clip-path="url(#729eddb7db)"><path fill="#ff7d2e" d="M 325.183594 175.714844 L 323.21875 180.214844 L 305.355469 172.421875 L 307.320312 167.921875 Z M 325.183594 175.714844 " fill-opacity="1" fill-rule="nonzero"/></g></g></g><g clip-path="url(#e59dcf7b50)"><g clip-path="url(#c63df67e19)"><g clip-path="url(#55458dadd9)"><path fill="#ff7d2e" d="M 285.839844 109.617188 L 290.675781 110.476562 L 287.265625 129.667969 L 282.429688 128.808594 Z M 285.839844 109.617188 " fill-opacity="1" fill-rule="nonzero"/></g></g></g><g fill="#21242a" fill-opacity="1"><g transform="translate(151.738207, 226.573742)"><g><path d="M 3.484375 -7.609375 C 4.453125 -7.609375 5.332031 -7.347656 6.125 -6.828125 L 5.59375 -5.71875 C 4.820312 -6.175781 4.082031 -6.40625 3.375 -6.40625 C 3 -6.40625 2.703125 -6.335938 2.484375 -6.203125 C 2.265625 -6.066406 2.15625 -5.875 2.15625 -5.625 C 2.15625 -5.375 2.253906 -5.160156 2.453125 -4.984375 C 2.648438 -4.804688 2.898438 -4.675781 3.203125 -4.59375 C 3.503906 -4.507812 3.832031 -4.40625 4.1875 -4.28125 C 4.539062 -4.15625 4.867188 -4.019531 5.171875 -3.875 C 5.472656 -3.738281 5.722656 -3.519531 5.921875 -3.21875 C 6.117188 -2.925781 6.21875 -2.566406 6.21875 -2.140625 C 6.21875 -1.472656 5.953125 -0.941406 5.421875 -0.546875 C 4.890625 -0.148438 4.207031 0.046875 3.375 0.046875 C 2.789062 0.046875 2.226562 -0.0625 1.6875 -0.28125 C 1.15625 -0.5 0.6875 -0.789062 0.28125 -1.15625 L 0.828125 -2.25 C 1.210938 -1.90625 1.632812 -1.632812 2.09375 -1.4375 C 2.550781 -1.25 2.984375 -1.15625 3.390625 -1.15625 C 3.835938 -1.15625 4.179688 -1.234375 4.421875 -1.390625 C 4.671875 -1.554688 4.796875 -1.785156 4.796875 -2.078125 C 4.796875 -2.335938 4.695312 -2.550781 4.5 -2.71875 C 4.300781 -2.894531 4.050781 -3.023438 3.75 -3.109375 C 3.445312 -3.191406 3.117188 -3.289062 2.765625 -3.40625 C 2.410156 -3.53125 2.082031 -3.660156 1.78125 -3.796875 C 1.476562 -3.929688 1.222656 -4.144531 1.015625 -4.4375 C 0.816406 -4.726562 0.71875 -5.082031 0.71875 -5.5 C 0.71875 -6.144531 0.96875 -6.65625 1.46875 -7.03125 C 1.976562 -7.414062 2.648438 -7.609375 3.484375 -7.609375 Z M 3.484375 -7.609375 "/></g></g></g><g fill="#21242a" fill-opacity="1"><g transform="translate(161.519749, 226.573742)"><g><path d="M 8.984375 0 L 7.8125 0 L 7.796875 -5.640625 L 5.40625 -0.78125 L 4.578125 -0.78125 L 2.1875 -5.640625 L 2.1875 0 L 1 0 L 1 -7.5625 L 2.5 -7.5625 L 5 -2.53125 L 7.484375 -7.5625 L 8.984375 -7.5625 Z M 8.984375 0 "/></g></g></g><g fill="#21242a" fill-opacity="1"><g transform="translate(174.571363, 226.573742)"><g><path d="M 6.03125 0 L 3.546875 -3.34375 L 2.265625 -1.921875 L 2.265625 0 L 1 0 L 1 -7.5625 L 2.265625 -7.5625 L 2.265625 -3.65625 L 5.875 -7.5625 L 7.375 -7.5625 L 4.453125 -4.328125 L 7.5625 0 Z M 6.03125 0 "/></g></g></g><g fill="#21242a" fill-opacity="1"><g transform="translate(185.388972, 226.573742)"><g/></g></g><g fill="#21242a" fill-opacity="1"><g transform="translate(191.242118, 226.573742)"><g><path d="M 6.15625 -6.40625 L 3.75 -6.40625 L 3.75 0 L 2.484375 0 L 2.484375 -6.40625 L 0.09375 -6.40625 L 0.09375 -7.5625 L 6.15625 -7.5625 Z M 6.15625 -6.40625 "/></g></g></g><g fill="#21242a" fill-opacity="1"><g transform="translate(200.559598, 226.573742)"><g><path d="M 6.390625 -6.40625 L 2.265625 -6.40625 L 2.265625 -4.375 L 5.953125 -4.375 L 5.953125 -3.234375 L 2.265625 -3.234375 L 2.265625 -1.140625 L 6.515625 -1.140625 L 6.515625 0 L 1 0 L 1 -7.5625 L 6.390625 -7.5625 Z M 6.390625 -6.40625 "/></g></g></g><g fill="#21242a" fill-opacity="1"><g transform="translate(210.708084, 226.573742)"><g><path d="M 2.265625 -1.15625 L 5.53125 -1.15625 L 5.53125 0 L 1 0 L 1 -7.5625 L 2.265625 -7.5625 Z M 2.265625 -1.15625 "/></g></g></g><g fill="#21242a" fill-opacity="1"><g transform="translate(219.539909, 226.573742)"><g><path d="M 6.390625 -6.40625 L 2.265625 -6.40625 L 2.265625 -4.375 L 5.953125 -4.375 L 5.953125 -3.234375 L 2.265625 -3.234375 L 2.265625 -1.140625 L 6.515625 -1.140625 L 6.515625 0 L 1 0 L 1 -7.5625 L 6.390625 -7.5625 Z M 6.390625 -6.40625 "/></g></g></g><g fill="#21242a" fill-opacity="1"><g transform="translate(229.688391, 226.573742)"><g><path d="M 6.03125 0 L 3.546875 -3.34375 L 2.265625 -1.921875 L 2.265625 0 L 1 0 L 1 -7.5625 L 2.265625 -7.5625 L 2.265625 -3.65625 L 5.875 -7.5625 L 7.375 -7.5625 L 4.453125 -4.328125 L 7.5625 0 Z M 6.03125 0 "/></g></g></g><g fill="#21242a" fill-opacity="1"><g transform="translate(240.505998, 226.573742)"><g><path d="M 1.515625 -6.484375 C 2.285156 -7.222656 3.234375 -7.59375 4.359375 -7.59375 C 5.492188 -7.59375 6.445312 -7.222656 7.21875 -6.484375 C 7.988281 -5.753906 8.375 -4.847656 8.375 -3.765625 C 8.375 -2.691406 7.988281 -1.785156 7.21875 -1.046875 C 6.445312 -0.316406 5.492188 0.046875 4.359375 0.046875 C 3.234375 0.046875 2.285156 -0.316406 1.515625 -1.046875 C 0.742188 -1.785156 0.359375 -2.691406 0.359375 -3.765625 C 0.359375 -4.847656 0.742188 -5.753906 1.515625 -6.484375 Z M 4.390625 -6.453125 C 3.640625 -6.453125 2.992188 -6.191406 2.453125 -5.671875 C 1.921875 -5.160156 1.65625 -4.53125 1.65625 -3.78125 C 1.65625 -3.03125 1.921875 -2.394531 2.453125 -1.875 C 2.992188 -1.351562 3.632812 -1.09375 4.375 -1.09375 C 5.125 -1.09375 5.757812 -1.351562 6.28125 -1.875 C 6.8125 -2.394531 7.078125 -3.03125 7.078125 -3.78125 C 7.078125 -4.53125 6.8125 -5.160156 6.28125 -5.671875 C 5.757812 -6.191406 5.128906 -6.453125 4.390625 -6.453125 Z M 4.390625 -6.453125 "/></g></g></g><g fill="#21242a" fill-opacity="1"><g transform="translate(252.316493, 226.573742)"><g><path d="M 8.984375 0 L 7.8125 0 L 7.796875 -5.640625 L 5.40625 -0.78125 L 4.578125 -0.78125 L 2.1875 -5.640625 L 2.1875 0 L 1 0 L 1 -7.5625 L 2.5 -7.5625 L 5 -2.53125 L 7.484375 -7.5625 L 8.984375 -7.5625 Z M 8.984375 0 "/></g></g></g><g fill="#21242a" fill-opacity="1"><g transform="translate(265.368103, 226.573742)"><g><path d="M 7.421875 -7.5625 L 7.421875 -3.125 C 7.421875 -2.144531 7.128906 -1.367188 6.546875 -0.796875 C 5.960938 -0.234375 5.160156 0.046875 4.140625 0.046875 C 3.117188 0.046875 2.3125 -0.234375 1.71875 -0.796875 C 1.132812 -1.367188 0.84375 -2.144531 0.84375 -3.125 L 0.84375 -7.5625 L 2.109375 -7.5625 L 2.109375 -3.125 C 2.109375 -2.5 2.289062 -2.003906 2.65625 -1.640625 C 3.019531 -1.273438 3.515625 -1.09375 4.140625 -1.09375 C 4.765625 -1.09375 5.253906 -1.269531 5.609375 -1.625 C 5.960938 -1.988281 6.140625 -2.488281 6.140625 -3.125 L 6.140625 -7.5625 Z M 7.421875 -7.5625 "/></g></g></g><g fill="#21242a" fill-opacity="1"><g transform="translate(276.682154, 226.573742)"><g><path d="M 7.546875 0 L 6.296875 0 L 2.265625 -5.421875 L 2.265625 0 L 1 0 L 1 -7.5625 L 2.25 -7.5625 L 6.296875 -2.125 L 6.296875 -7.5625 L 7.546875 -7.5625 Z M 7.546875 0 "/></g></g></g><g fill="#21242a" fill-opacity="1"><g transform="translate(288.298385, 226.573742)"><g><path d="M 2.265625 0 L 1 0 L 1 -7.5625 L 2.265625 -7.5625 Z M 2.265625 0 "/></g></g></g><g fill="#21242a" fill-opacity="1"><g transform="translate(294.626389, 226.573742)"><g><path d="M 6.03125 0 L 3.546875 -3.34375 L 2.265625 -1.921875 L 2.265625 0 L 1 0 L 1 -7.5625 L 2.265625 -7.5625 L 2.265625 -3.65625 L 5.875 -7.5625 L 7.375 -7.5625 L 4.453125 -4.328125 L 7.5625 0 Z M 6.03125 0 "/></g></g></g><g fill="#21242a" fill-opacity="1"><g transform="translate(305.443995, 226.573742)"><g><path d="M 5.875 -1.703125 L 2.0625 -1.703125 L 1.34375 0 L 0.015625 0 L 3.34375 -7.5625 L 4.65625 -7.5625 L 7.953125 0 L 6.59375 0 Z M 5.390625 -2.84375 L 3.96875 -6.203125 L 2.53125 -2.84375 Z M 5.390625 -2.84375 "/></g></g></g><g fill="#21242a" fill-opacity="1"><g transform="translate(316.477449, 226.573742)"><g><path d="M 3.484375 -7.609375 C 4.453125 -7.609375 5.332031 -7.347656 6.125 -6.828125 L 5.59375 -5.71875 C 4.820312 -6.175781 4.082031 -6.40625 3.375 -6.40625 C 3 -6.40625 2.703125 -6.335938 2.484375 -6.203125 C 2.265625 -6.066406 2.15625 -5.875 2.15625 -5.625 C 2.15625 -5.375 2.253906 -5.160156 2.453125 -4.984375 C 2.648438 -4.804688 2.898438 -4.675781 3.203125 -4.59375 C 3.503906 -4.507812 3.832031 -4.40625 4.1875 -4.28125 C 4.539062 -4.15625 4.867188 -4.019531 5.171875 -3.875 C 5.472656 -3.738281 5.722656 -3.519531 5.921875 -3.21875 C 6.117188 -2.925781 6.21875 -2.566406 6.21875 -2.140625 C 6.21875 -1.472656 5.953125 -0.941406 5.421875 -0.546875 C 4.890625 -0.148438 4.207031 0.046875 3.375 0.046875 C 2.789062 0.046875 2.226562 -0.0625 1.6875 -0.28125 C 1.15625 -0.5 0.6875 -0.789062 0.28125 -1.15625 L 0.828125 -2.25 C 1.210938 -1.90625 1.632812 -1.632812 2.09375 -1.4375 C 2.550781 -1.25 2.984375 -1.15625 3.390625 -1.15625 C 3.835938 -1.15625 4.179688 -1.234375 4.421875 -1.390625 C 4.671875 -1.554688 4.796875 -1.785156 4.796875 -2.078125 C 4.796875 -2.335938 4.695312 -2.550781 4.5 -2.71875 C 4.300781 -2.894531 4.050781 -3.023438 3.75 -3.109375 C 3.445312 -3.191406 3.117188 -3.289062 2.765625 -3.40625 C 2.410156 -3.53125 2.082031 -3.660156 1.78125 -3.796875 C 1.476562 -3.929688 1.222656 -4.144531 1.015625 -4.4375 C 0.816406 -4.726562 0.71875 -5.082031 0.71875 -5.5 C 0.71875 -6.144531 0.96875 -6.65625 1.46875 -7.03125 C 1.976562 -7.414062 2.648438 -7.609375 3.484375 -7.609375 Z M 3.484375 -7.609375 "/></g></g></g><g fill="#21242a" fill-opacity="1"><g transform="translate(326.258988, 226.573742)"><g><path d="M 2.265625 0 L 1 0 L 1 -7.5625 L 2.265625 -7.5625 Z M 2.265625 0 "/></g></g></g><g fill="#21242a" fill-opacity="1"><g transform="translate(332.588377, 226.573742)"><g/></g></g><g fill="#21242a" fill-opacity="1"><g transform="translate(151.738207, 241.187898)"><g><path d="M 6.15625 -6.40625 L 3.75 -6.40625 L 3.75 0 L 2.484375 0 L 2.484375 -6.40625 L 0.09375 -6.40625 L 0.09375 -7.5625 L 6.15625 -7.5625 Z M 6.15625 -6.40625 "/></g></g></g><g fill="#21242a" fill-opacity="1"><g transform="translate(161.055686, 241.187898)"><g><path d="M 7.421875 -7.5625 L 7.421875 -3.125 C 7.421875 -2.144531 7.128906 -1.367188 6.546875 -0.796875 C 5.960938 -0.234375 5.160156 0.046875 4.140625 0.046875 C 3.117188 0.046875 2.3125 -0.234375 1.71875 -0.796875 C 1.132812 -1.367188 0.84375 -2.144531 0.84375 -3.125 L 0.84375 -7.5625 L 2.109375 -7.5625 L 2.109375 -3.125 C 2.109375 -2.5 2.289062 -2.003906 2.65625 -1.640625 C 3.019531 -1.273438 3.515625 -1.09375 4.140625 -1.09375 C 4.765625 -1.09375 5.253906 -1.269531 5.609375 -1.625 C 5.960938 -1.988281 6.140625 -2.488281 6.140625 -3.125 L 6.140625 -7.5625 Z M 7.421875 -7.5625 "/></g></g></g><g fill="#21242a" fill-opacity="1"><g transform="translate(172.36974, 241.187898)"><g><path d="M 7.546875 0 L 6.296875 0 L 2.265625 -5.421875 L 2.265625 0 L 1 0 L 1 -7.5625 L 2.25 -7.5625 L 6.296875 -2.125 L 6.296875 -7.5625 L 7.546875 -7.5625 Z M 7.546875 0 "/></g></g></g><g fill="#21242a" fill-opacity="1"><g transform="translate(183.985974, 241.187898)"><g><path d="M 5.875 -1.703125 L 2.0625 -1.703125 L 1.34375 0 L 0.015625 0 L 3.34375 -7.5625 L 4.65625 -7.5625 L 7.953125 0 L 6.59375 0 Z M 5.390625 -2.84375 L 3.96875 -6.203125 L 2.53125 -2.84375 Z M 5.390625 -2.84375 "/></g></g></g><g fill="#21242a" fill-opacity="1"><g transform="translate(195.019431, 241.187898)"><g><path d="M 3.484375 -7.609375 C 4.453125 -7.609375 5.332031 -7.347656 6.125 -6.828125 L 5.59375 -5.71875 C 4.820312 -6.175781 4.082031 -6.40625 3.375 -6.40625 C 3 -6.40625 2.703125 -6.335938 2.484375 -6.203125 C 2.265625 -6.066406 2.15625 -5.875 2.15625 -5.625 C 2.15625 -5.375 2.253906 -5.160156 2.453125 -4.984375 C 2.648438 -4.804688 2.898438 -4.675781 3.203125 -4.59375 C 3.503906 -4.507812 3.832031 -4.40625 4.1875 -4.28125 C 4.539062 -4.15625 4.867188 -4.019531 5.171875 -3.875 C 5.472656 -3.738281 5.722656 -3.519531 5.921875 -3.21875 C 6.117188 -2.925781 6.21875 -2.566406 6.21875 -2.140625 C 6.21875 -1.472656 5.953125 -0.941406 5.421875 -0.546875 C 4.890625 -0.148438 4.207031 0.046875 3.375 0.046875 C 2.789062 0.046875 2.226562 -0.0625 1.6875 -0.28125 C 1.15625 -0.5 0.6875 -0.789062 0.28125 -1.15625 L 0.828125 -2.25 C 1.210938 -1.90625 1.632812 -1.632812 2.09375 -1.4375 C 2.550781 -1.25 2.984375 -1.15625 3.390625 -1.15625 C 3.835938 -1.15625 4.179688 -1.234375 4.421875 -1.390625 C 4.671875 -1.554688 4.796875 -1.785156 4.796875 -2.078125 C 4.796875 -2.335938 4.695312 -2.550781 4.5 -2.71875 C 4.300781 -2.894531 4.050781 -3.023438 3.75 -3.109375 C 3.445312 -3.191406 3.117188 -3.289062 2.765625 -3.40625 C 2.410156 -3.53125 2.082031 -3.660156 1.78125 -3.796875 C 1.476562 -3.929688 1.222656 -4.144531 1.015625 -4.4375 C 0.816406 -4.726562 0.71875 -5.082031 0.71875 -5.5 C 0.71875 -6.144531 0.96875 -6.65625 1.46875 -7.03125 C 1.976562 -7.414062 2.648438 -7.609375 3.484375 -7.609375 Z M 3.484375 -7.609375 "/></g></g></g><g fill="#21242a" fill-opacity="1"><g transform="translate(204.80097, 241.187898)"><g/></g></g><g fill="#21242a" fill-opacity="1"><g transform="translate(210.654113, 241.187898)"><g><path d="M 7.546875 0 L 6.265625 0 L 6.265625 -3.125 L 2.265625 -3.125 L 2.265625 0 L 1 0 L 1 -7.5625 L 2.265625 -7.5625 L 2.265625 -4.28125 L 6.265625 -4.28125 L 6.265625 -7.5625 L 7.546875 -7.5625 Z M 7.546875 0 "/></g></g></g><g fill="#21242a" fill-opacity="1"><g transform="translate(222.259559, 241.187898)"><g><path d="M 5.875 -1.703125 L 2.0625 -1.703125 L 1.34375 0 L 0.015625 0 L 3.34375 -7.5625 L 4.65625 -7.5625 L 7.953125 0 L 6.59375 0 Z M 5.390625 -2.84375 L 3.96875 -6.203125 L 2.53125 -2.84375 Z M 5.390625 -2.84375 "/></g></g></g><g fill="#21242a" fill-opacity="1"><g transform="translate(233.293012, 241.187898)"><g><path d="M 5.78125 0 L 4.40625 -2.28125 C 4.332031 -2.28125 4.21875 -2.28125 4.0625 -2.28125 L 2.265625 -2.28125 L 2.265625 0 L 1 0 L 1 -7.5625 L 4.0625 -7.5625 C 5.019531 -7.5625 5.765625 -7.332031 6.296875 -6.875 C 6.835938 -6.425781 7.109375 -5.796875 7.109375 -4.984375 C 7.109375 -4.378906 6.972656 -3.863281 6.703125 -3.4375 C 6.429688 -3.019531 6.039062 -2.71875 5.53125 -2.53125 L 7.234375 0 Z M 2.265625 -3.421875 L 4.0625 -3.421875 C 5.28125 -3.421875 5.890625 -3.925781 5.890625 -4.9375 C 5.890625 -5.914062 5.28125 -6.40625 4.0625 -6.40625 L 2.265625 -6.40625 Z M 2.265625 -3.421875 "/></g></g></g><g fill="#21242a" fill-opacity="1"><g transform="translate(244.164572, 241.187898)"><g><path d="M 5.875 -1.703125 L 2.0625 -1.703125 L 1.34375 0 L 0.015625 0 L 3.34375 -7.5625 L 4.65625 -7.5625 L 7.953125 0 L 6.59375 0 Z M 5.390625 -2.84375 L 3.96875 -6.203125 L 2.53125 -2.84375 Z M 5.390625 -2.84375 "/></g></g></g><g fill="#21242a" fill-opacity="1"><g transform="translate(255.198025, 241.187898)"><g><path d="M 1 -7.5625 L 4 -7.5625 C 4.957031 -7.5625 5.695312 -7.332031 6.21875 -6.875 C 6.738281 -6.425781 7 -5.796875 7 -4.984375 C 7 -4.117188 6.738281 -3.453125 6.21875 -2.984375 C 5.695312 -2.515625 4.957031 -2.28125 4 -2.28125 L 2.265625 -2.28125 L 2.265625 0 L 1 0 Z M 2.265625 -6.40625 L 2.265625 -3.421875 L 3.953125 -3.421875 C 5.171875 -3.421875 5.78125 -3.925781 5.78125 -4.9375 C 5.78125 -5.914062 5.171875 -6.40625 3.953125 -6.40625 Z M 2.265625 -6.40625 "/></g></g></g><g fill="#21242a" fill-opacity="1"><g transform="translate(265.529973, 241.187898)"><g><path d="M 5.875 -1.703125 L 2.0625 -1.703125 L 1.34375 0 L 0.015625 0 L 3.34375 -7.5625 L 4.65625 -7.5625 L 7.953125 0 L 6.59375 0 Z M 5.390625 -2.84375 L 3.96875 -6.203125 L 2.53125 -2.84375 Z M 5.390625 -2.84375 "/></g></g></g><g fill="#21242a" fill-opacity="1"><g transform="translate(276.563427, 241.187898)"><g><path d="M 7.546875 0 L 6.296875 0 L 2.265625 -5.421875 L 2.265625 0 L 1 0 L 1 -7.5625 L 2.25 -7.5625 L 6.296875 -2.125 L 6.296875 -7.5625 L 7.546875 -7.5625 Z M 7.546875 0 "/></g></g></g></svg>