<svg xmlns="http://www.w3.org/2000/svg" xmlns:xlink="http://www.w3.org/1999/xlink" width="500" zoomAndPan="magnify" viewBox="0 0 375 374.999991" height="500" preserveAspectRatio="xMidYMid meet" version="1.0"><defs><g/><clipPath id="3a70ab1f55"><path d="M 129 108.78125 L 257.863281 108.78125 L 257.863281 239.28125 L 129 239.28125 Z M 129 108.78125 " clip-rule="nonzero"/></clipPath><clipPath id="2ce283c815"><path d="M 137 119 L 160 119 L 160 128 L 137 128 Z M 137 119 " clip-rule="nonzero"/></clipPath><clipPath id="4730bf400e"><path d="M 138.207031 127.957031 L 137.386719 122.585938 L 158.695312 119.339844 L 159.515625 124.710938 Z M 138.207031 127.957031 " clip-rule="nonzero"/></clipPath><clipPath id="570aa95214"><path d="M 137.796875 125.273438 C 137.570312 123.789062 138.589844 122.40625 140.074219 122.179688 L 156.003906 119.753906 C 157.484375 119.527344 158.871094 120.546875 159.097656 122.027344 C 159.324219 123.511719 158.304688 124.894531 156.820312 125.121094 L 140.890625 127.546875 C 139.410156 127.773438 138.023438 126.753906 137.796875 125.273438 Z M 137.796875 125.273438 " clip-rule="nonzero"/></clipPath><clipPath id="7bd24fea7a"><path d="M 138 98 L 160 98 L 160 109 L 138 109 Z M 138 98 " clip-rule="nonzero"/></clipPath><clipPath id="411afd2c9f"><path d="M 137.660156 102.90625 L 139.261719 97.71875 L 159.855469 104.082031 L 158.25 109.269531 Z M 137.660156 102.90625 " clip-rule="nonzero"/></clipPath><clipPath id="1d7b438114"><path d="M 138.460938 100.3125 C 138.902344 98.878906 140.425781 98.078125 141.855469 98.519531 L 157.253906 103.277344 C 158.6875 103.722656 159.488281 105.242188 159.046875 106.675781 C 158.601562 108.105469 157.082031 108.910156 155.648438 108.46875 L 140.253906 103.707031 C 138.820312 103.265625 138.019531 101.746094 138.460938 100.3125 Z M 138.460938 100.3125 " clip-rule="nonzero"/></clipPath><clipPath id="a4338ce29e"><path d="M 148 77 L 167 77 L 167 95 L 148 95 Z M 148 77 " clip-rule="nonzero"/></clipPath><clipPath id="a3969aa156"><path d="M 147.730469 80.832031 L 151.375 76.804688 L 167.359375 91.265625 L 163.714844 95.292969 Z M 147.730469 80.832031 " clip-rule="nonzero"/></clipPath><clipPath id="650986224b"><path d="M 149.550781 78.820312 C 150.558594 77.707031 152.273438 77.621094 153.386719 78.625 L 165.335938 89.4375 C 166.449219 90.441406 166.535156 92.160156 165.53125 93.273438 C 164.523438 94.386719 162.804688 94.472656 161.695312 93.464844 L 149.742188 82.652344 C 148.632812 81.648438 148.546875 79.929688 149.550781 78.820312 Z M 149.550781 78.820312 " clip-rule="nonzero"/></clipPath><clipPath id="e3f2dcfa7d"><path d="M 167 65 L 180 65 L 180 86 L 167 86 Z M 167 65 " clip-rule="nonzero"/></clipPath><clipPath id="23093c4370"><path d="M 166.324219 66.320312 L 171.296875 64.136719 L 179.964844 83.871094 L 174.992188 86.054688 Z M 166.324219 66.320312 " clip-rule="nonzero"/></clipPath><clipPath id="80741d1312"><path d="M 168.808594 65.230469 C 170.183594 64.625 171.785156 65.25 172.390625 66.621094 L 178.871094 81.375 C 179.472656 82.75 178.847656 84.351562 177.476562 84.953125 C 176.101562 85.558594 174.5 84.933594 173.898438 83.5625 L 167.417969 68.808594 C 166.8125 67.433594 167.4375 65.832031 168.808594 65.230469 Z M 168.808594 65.230469 " clip-rule="nonzero"/></clipPath><clipPath id="da2a761a6f"><path d="M 207 65 L 219 65 L 219 86 L 207 86 Z M 207 65 " clip-rule="nonzero"/></clipPath><clipPath id="1542136782"><path d="M 214.582031 64.550781 L 219.636719 66.535156 L 211.773438 86.601562 L 206.714844 84.621094 Z M 214.582031 64.550781 " clip-rule="nonzero"/></clipPath><clipPath id="10ddb5872d"><path d="M 217.109375 65.542969 C 218.503906 66.089844 219.195312 67.664062 218.644531 69.0625 L 212.765625 84.066406 C 212.21875 85.460938 210.644531 86.148438 209.246094 85.601562 C 207.851562 85.054688 207.164062 83.480469 207.710938 82.082031 L 213.589844 67.078125 C 214.136719 65.683594 215.710938 64.996094 217.109375 65.542969 Z M 217.109375 65.542969 " clip-rule="nonzero"/></clipPath><clipPath id="20dd52896e"><path d="M 219 77 L 237 77 L 237 96 L 219 96 Z M 219 77 " clip-rule="nonzero"/></clipPath><clipPath id="b9e09538c0"><path d="M 233.277344 76.808594 L 237.285156 80.46875 L 222.75 96.382812 L 218.742188 92.722656 Z M 233.277344 76.808594 " clip-rule="nonzero"/></clipPath><clipPath id="8e8a616898"><path d="M 235.28125 78.636719 C 236.390625 79.648438 236.46875 81.367188 235.457031 82.472656 L 224.589844 94.371094 C 223.578125 95.480469 221.859375 95.558594 220.75 94.546875 C 219.644531 93.535156 219.566406 91.816406 220.578125 90.710938 L 231.445312 78.8125 C 232.457031 77.703125 234.175781 77.625 235.28125 78.636719 Z M 235.28125 78.636719 " clip-rule="nonzero"/></clipPath><clipPath id="e89aad4c57"><path d="M 227 98 L 248 98 L 248 109 L 227 109 Z M 227 98 " clip-rule="nonzero"/></clipPath><clipPath id="6432bd3de2"><path d="M 247.007812 97.878906 L 248.566406 103.082031 L 227.921875 109.273438 L 226.359375 104.070312 Z M 247.007812 97.878906 " clip-rule="nonzero"/></clipPath><clipPath id="ab8e477fc3"><path d="M 247.785156 100.480469 C 248.21875 101.917969 247.402344 103.429688 245.964844 103.859375 L 230.53125 108.492188 C 229.09375 108.921875 227.582031 108.105469 227.148438 106.667969 C 226.71875 105.234375 227.535156 103.71875 228.96875 103.289062 L 244.40625 98.660156 C 245.839844 98.226562 247.355469 99.042969 247.785156 100.480469 Z M 247.785156 100.480469 " clip-rule="nonzero"/></clipPath><clipPath id="85b2d4ca8c"><path d="M 226 119 L 249 119 L 249 128 L 226 128 Z M 226 119 " clip-rule="nonzero"/></clipPath><clipPath id="4467d45ba1"><path d="M 248.636719 122.953125 L 247.609375 128.285156 L 226.445312 124.21875 L 227.46875 118.882812 Z M 248.636719 122.953125 " clip-rule="nonzero"/></clipPath><clipPath id="6ea0a469f7"><path d="M 248.121094 125.621094 C 247.839844 127.09375 246.417969 128.058594 244.941406 127.773438 L 229.117188 124.730469 C 227.644531 124.449219 226.683594 123.023438 226.964844 121.550781 C 227.25 120.078125 228.671875 119.113281 230.144531 119.398438 L 245.96875 122.441406 C 247.441406 122.722656 248.40625 124.148438 248.121094 125.621094 Z M 248.121094 125.621094 " clip-rule="nonzero"/></clipPath><clipPath id="789cb90dfc"><path d="M 190 61 L 197 61 L 197 83 L 190 83 Z M 190 61 " clip-rule="nonzero"/></clipPath><clipPath id="b21d0c35e3"><path d="M 190.136719 61.195312 L 195.5625 60.945312 L 196.542969 82.480469 L 191.117188 82.726562 Z M 190.136719 61.195312 " clip-rule="nonzero"/></clipPath><clipPath id="f36cfd1ebd"><path d="M 192.851562 61.070312 C 194.347656 61.003906 195.617188 62.160156 195.6875 63.660156 L 196.417969 79.757812 C 196.488281 81.253906 195.328125 82.527344 193.828125 82.59375 C 192.332031 82.660156 191.0625 81.503906 190.992188 80.003906 L 190.261719 63.90625 C 190.191406 62.410156 191.351562 61.140625 192.851562 61.070312 Z M 192.851562 61.070312 " clip-rule="nonzero"/></clipPath><clipPath id="643acccc64"><path d="M 219.945312 270.148438 L 229.203125 270.148438 L 229.203125 279.023438 L 219.945312 279.023438 Z M 219.945312 270.148438 " clip-rule="nonzero"/></clipPath><clipPath id="72978c61f1"><path d="M 224.574219 270.148438 C 222.019531 270.148438 219.945312 272.136719 219.945312 274.585938 C 219.945312 277.035156 222.019531 279.023438 224.574219 279.023438 C 227.132812 279.023438 229.203125 277.035156 229.203125 274.585938 C 229.203125 272.136719 227.132812 270.148438 224.574219 270.148438 Z M 224.574219 270.148438 " clip-rule="nonzero"/></clipPath></defs><g clip-path="url(#3a70ab1f55)"><path fill="#0067ad" d="M 202.835938 239.011719 C 202.410156 239.132812 201.976562 239.1875 201.535156 239.171875 C 198.296875 239.042969 196.019531 234.945312 196.464844 230.023438 C 197.046875 224.382812 197.667969 218.730469 198.328125 213.066406 C 198.5625 210.886719 199.179688 208.820312 200.175781 206.867188 C 201.175781 204.914062 202.488281 203.203125 204.117188 201.730469 L 205.152344 200.832031 C 207.972656 198.328125 210.804688 195.675781 213.65625 192.875 C 217.105469 189.496094 220.792969 186.121094 224.722656 182.753906 C 226.980469 180.816406 230.390625 180.414062 232.269531 181.832031 C 234.109375 183.222656 233.628906 185.945312 231.460938 187.910156 C 227.347656 191.570312 223.5 195.242188 219.921875 198.929688 C 221.167969 198.210938 222.441406 197.496094 223.726562 196.777344 C 231.183594 192.589844 237.96875 185.683594 240.875 178.300781 L 243.5 171.539062 C 244.578125 168.730469 248.449219 166.460938 252.179688 166.46875 C 255.914062 166.476562 257.90625 168.722656 256.640625 171.523438 C 255.023438 175.15625 253.402344 178.792969 251.78125 182.429688 C 247.582031 191.847656 239.546875 201.050781 231.078125 208.257812 C 229.335938 209.730469 227.648438 211.207031 226.019531 212.6875 C 221.132812 217.082031 217.3125 222.261719 214.554688 228.226562 C 212.027344 233.527344 208.074219 237.585938 204.285156 238.621094 Z M 183.195312 239.011719 L 181.753906 238.628906 C 177.972656 237.59375 174.011719 233.539062 171.492188 228.234375 C 168.730469 222.273438 164.90625 217.09375 160.019531 212.695312 C 158.402344 211.210938 156.714844 209.734375 154.960938 208.265625 C 146.492188 201.085938 138.457031 191.855469 134.257812 182.460938 C 132.636719 178.828125 131.019531 175.195312 129.398438 171.554688 C 128.160156 168.695312 130.136719 166.488281 133.898438 166.476562 C 137.664062 166.46875 141.503906 168.738281 142.578125 171.546875 L 145.203125 178.308594 C 148.109375 185.691406 154.917969 192.597656 162.351562 196.785156 C 163.640625 197.503906 164.910156 198.21875 166.160156 198.9375 C 162.578125 195.257812 158.734375 191.585938 154.621094 187.917969 C 152.410156 185.953125 151.933594 183.230469 153.769531 181.839844 C 155.632812 180.421875 159.058594 180.824219 161.316406 182.761719 C 165.25 186.128906 168.941406 189.503906 172.386719 192.882812 C 175.230469 195.652344 178.054688 198.300781 180.863281 200.832031 L 181.898438 201.765625 C 183.527344 203.234375 184.839844 204.945312 185.835938 206.898438 C 186.835938 208.851562 187.453125 210.917969 187.6875 213.101562 C 188.347656 218.757812 188.96875 224.410156 189.550781 230.054688 C 189.996094 234.976562 187.703125 239.074219 184.480469 239.203125 C 184.042969 239.207031 183.613281 239.140625 183.195312 239.011719 Z M 181.054688 143.417969 L 204.09375 143.417969 C 209.761719 143.417969 214.78125 145.847656 217.273438 149.394531 L 193.007812 159.789062 L 168.71875 149.363281 C 170.886719 145.832031 175.445312 143.417969 181.054688 143.417969 Z M 193.074219 140.453125 C 192.035156 140.453125 191.003906 140.347656 189.984375 140.140625 C 188.96875 139.933594 187.980469 139.628906 187.019531 139.230469 C 186.0625 138.828125 185.152344 138.339844 184.289062 137.757812 C 183.425781 137.179688 182.628906 136.519531 181.898438 135.78125 C 181.164062 135.046875 180.511719 134.246094 179.9375 133.378906 C 179.359375 132.511719 178.875 131.601562 178.480469 130.640625 C 178.085938 129.679688 177.789062 128.6875 177.589844 127.667969 C 177.386719 126.648438 177.289062 125.617188 177.292969 124.578125 C 177.292969 123.539062 177.398438 122.511719 177.601562 121.492188 C 177.808594 120.472656 178.109375 119.484375 178.507812 118.527344 C 178.910156 117.566406 179.398438 116.65625 179.976562 115.792969 C 180.558594 114.929688 181.214844 114.132812 181.949219 113.398438 C 182.6875 112.664062 183.488281 112.011719 184.351562 111.433594 C 185.214844 110.859375 186.128906 110.371094 187.089844 109.976562 C 188.050781 109.582031 189.039062 109.28125 190.058594 109.078125 C 191.078125 108.878906 192.109375 108.777344 193.148438 108.78125 C 194.1875 108.78125 195.214844 108.882812 196.234375 109.085938 C 197.253906 109.292969 198.242188 109.59375 199.203125 109.992188 C 200.164062 110.390625 201.074219 110.878906 201.9375 111.457031 C 202.800781 112.035156 203.601562 112.691406 204.335938 113.425781 C 205.070312 114.160156 205.722656 114.960938 206.300781 115.824219 C 206.878906 116.6875 207.367188 117.601562 207.761719 118.5625 C 208.160156 119.519531 208.460938 120.511719 208.664062 121.53125 C 208.867188 122.550781 208.964844 123.578125 208.964844 124.617188 C 208.964844 125.136719 208.9375 125.65625 208.886719 126.171875 C 208.835938 126.6875 208.757812 127.203125 208.65625 127.710938 C 208.554688 128.222656 208.425781 128.722656 208.273438 129.222656 C 208.121094 129.71875 207.945312 130.207031 207.746094 130.6875 C 207.546875 131.164062 207.324219 131.632812 207.078125 132.09375 C 206.832031 132.550781 206.566406 132.996094 206.277344 133.425781 C 205.988281 133.859375 205.675781 134.273438 205.347656 134.675781 C 205.015625 135.074219 204.667969 135.460938 204.296875 135.828125 C 203.929688 136.195312 203.546875 136.542969 203.144531 136.871094 C 202.742188 137.199219 202.324219 137.507812 201.890625 137.796875 C 201.457031 138.082031 201.011719 138.347656 200.554688 138.59375 C 200.09375 138.835938 199.625 139.058594 199.144531 139.257812 C 198.664062 139.453125 198.175781 139.628906 197.679688 139.777344 C 197.179688 139.929688 196.679688 140.054688 196.167969 140.15625 C 195.660156 140.253906 195.144531 140.332031 194.628906 140.382812 C 194.109375 140.429688 193.59375 140.457031 193.074219 140.453125 Z M 193.007812 191.742188 L 165.867188 177.820312 C 165.65625 177.707031 165.523438 177.53125 165.46875 177.296875 L 160.457031 150.648438 C 160.425781 150.476562 160.441406 150.308594 160.507812 150.148438 C 160.59375 149.9375 160.742188 149.792969 160.953125 149.710938 C 161.160156 149.625 161.367188 149.628906 161.574219 149.71875 L 193.007812 163.191406 L 224.449219 149.71875 C 224.65625 149.628906 224.863281 149.625 225.070312 149.710938 C 225.28125 149.792969 225.429688 149.9375 225.515625 150.148438 C 225.585938 150.308594 225.605469 150.476562 225.566406 150.648438 L 220.539062 177.296875 C 220.484375 177.53125 220.351562 177.707031 220.140625 177.820312 Z M 193.007812 191.742188 " fill-opacity="1" fill-rule="nonzero"/></g><g clip-path="url(#2ce283c815)"><g clip-path="url(#4730bf400e)"><g clip-path="url(#570aa95214)"><path fill="#ff914d" d="M 138.207031 127.957031 L 137.386719 122.585938 L 158.695312 119.339844 L 159.515625 124.710938 Z M 138.207031 127.957031 " fill-opacity="1" fill-rule="nonzero"/></g></g></g><g clip-path="url(#7bd24fea7a)"><g clip-path="url(#411afd2c9f)"><g clip-path="url(#1d7b438114)"><path fill="#ff914d" d="M 137.660156 102.90625 L 139.261719 97.71875 L 159.855469 104.082031 L 158.25 109.269531 Z M 137.660156 102.90625 " fill-opacity="1" fill-rule="nonzero"/></g></g></g><g clip-path="url(#a4338ce29e)"><g clip-path="url(#a3969aa156)"><g clip-path="url(#650986224b)"><path fill="#ff914d" d="M 147.730469 80.832031 L 151.375 76.804688 L 167.359375 91.265625 L 163.714844 95.292969 Z M 147.730469 80.832031 " fill-opacity="1" fill-rule="nonzero"/></g></g></g><g clip-path="url(#e3f2dcfa7d)"><g clip-path="url(#23093c4370)"><g clip-path="url(#80741d1312)"><path fill="#ff914d" d="M 166.324219 66.320312 L 171.296875 64.136719 L 179.964844 83.871094 L 174.992188 86.054688 Z M 166.324219 66.320312 " fill-opacity="1" fill-rule="nonzero"/></g></g></g><g clip-path="url(#da2a761a6f)"><g clip-path="url(#1542136782)"><g clip-path="url(#10ddb5872d)"><path fill="#ff914d" d="M 214.582031 64.550781 L 219.636719 66.53125 L 211.773438 86.601562 L 206.714844 84.621094 Z M 214.582031 64.550781 " fill-opacity="1" fill-rule="nonzero"/></g></g></g><g clip-path="url(#20dd52896e)"><g clip-path="url(#b9e09538c0)"><g clip-path="url(#8e8a616898)"><path fill="#ff914d" d="M 233.277344 76.808594 L 237.285156 80.46875 L 222.75 96.382812 L 218.742188 92.722656 Z M 233.277344 76.808594 " fill-opacity="1" fill-rule="nonzero"/></g></g></g><g clip-path="url(#e89aad4c57)"><g clip-path="url(#6432bd3de2)"><g clip-path="url(#ab8e477fc3)"><path fill="#ff914d" d="M 247.007812 97.878906 L 248.566406 103.082031 L 227.921875 109.273438 L 226.359375 104.070312 Z M 247.007812 97.878906 " fill-opacity="1" fill-rule="nonzero"/></g></g></g><g clip-path="url(#85b2d4ca8c)"><g clip-path="url(#4467d45ba1)"><g clip-path="url(#6ea0a469f7)"><path fill="#ff914d" d="M 248.636719 122.953125 L 247.609375 128.285156 L 226.445312 124.21875 L 227.46875 118.882812 Z M 248.636719 122.953125 " fill-opacity="1" fill-rule="nonzero"/></g></g></g><g clip-path="url(#789cb90dfc)"><g clip-path="url(#b21d0c35e3)"><g clip-path="url(#f36cfd1ebd)"><path fill="#ff914d" d="M 190.136719 61.195312 L 195.5625 60.945312 L 196.542969 82.480469 L 191.117188 82.726562 Z M 190.136719 61.195312 " fill-opacity="1" fill-rule="nonzero"/></g></g></g><g fill="#008ed1" fill-opacity="1"><g transform="translate(108.802365, 305.641211)"><g><path d="M 3.890625 -3.28125 L 3.890625 -29.125 C 3.890625 -30.113281 4.234375 -30.953125 4.921875 -31.640625 C 5.617188 -32.335938 6.460938 -32.6875 7.453125 -32.6875 C 8.441406 -32.6875 9.28125 -32.335938 9.96875 -31.640625 C 10.664062 -30.953125 11.015625 -30.113281 11.015625 -29.125 L 11.015625 -19.578125 L 24.171875 -19.578125 L 24.171875 -29.125 C 24.171875 -30.113281 24.515625 -30.953125 25.203125 -31.640625 C 25.898438 -32.335938 26.742188 -32.6875 27.734375 -32.6875 C 28.722656 -32.6875 29.5625 -32.335938 30.25 -31.640625 C 30.945312 -30.953125 31.296875 -30.113281 31.296875 -29.125 L 31.296875 -3.28125 C 31.296875 -2.300781 30.945312 -1.460938 30.25 -0.765625 C 29.5625 -0.0664062 28.722656 0.28125 27.734375 0.28125 C 26.742188 0.28125 25.898438 -0.0664062 25.203125 -0.765625 C 24.515625 -1.460938 24.171875 -2.300781 24.171875 -3.28125 L 24.171875 -13.015625 L 11.015625 -13.015625 L 11.015625 -3.28125 C 11.015625 -2.300781 10.664062 -1.460938 9.96875 -0.765625 C 9.28125 -0.0664062 8.441406 0.28125 7.453125 0.28125 C 6.460938 0.28125 5.617188 -0.0664062 4.921875 -0.765625 C 4.234375 -1.460938 3.890625 -2.300781 3.890625 -3.28125 Z M 3.890625 -3.28125 "/></g></g></g><g fill="#008ed1" fill-opacity="1"><g transform="translate(143.982027, 305.641211)"><g><path d="M 1.671875 -7.21875 C 1.671875 -8.582031 1.914062 -9.753906 2.40625 -10.734375 C 2.894531 -11.722656 3.578125 -12.539062 4.453125 -13.1875 C 5.335938 -13.84375 6.390625 -14.332031 7.609375 -14.65625 C 8.828125 -14.976562 10.179688 -15.140625 11.671875 -15.140625 C 12.960938 -15.140625 14.070312 -15.046875 15 -14.859375 C 15.925781 -14.671875 16.835938 -14.425781 17.734375 -14.125 L 17.734375 -14.53125 C 17.734375 -17.5625 15.957031 -19.078125 12.40625 -19.078125 C 11.414062 -19.078125 10.507812 -19.046875 9.6875 -18.984375 C 8.875 -18.921875 8.160156 -18.71875 7.546875 -18.375 C 7.296875 -18.25 6.957031 -18.1875 6.53125 -18.1875 C 5.726562 -18.1875 5.039062 -18.460938 4.46875 -19.015625 C 3.894531 -19.578125 3.609375 -20.257812 3.609375 -21.0625 C 3.609375 -21.675781 3.785156 -22.226562 4.140625 -22.71875 C 4.492188 -23.21875 4.953125 -23.578125 5.515625 -23.796875 C 6.617188 -24.222656 7.796875 -24.546875 9.046875 -24.765625 C 10.296875 -24.984375 11.753906 -25.09375 13.421875 -25.09375 C 17.066406 -25.09375 19.820312 -24.21875 21.6875 -22.46875 C 23.550781 -20.726562 24.484375 -18.035156 24.484375 -14.390625 L 24.484375 -3.109375 C 24.484375 -2.148438 24.148438 -1.34375 23.484375 -0.6875 C 22.828125 -0.0390625 22.019531 0.28125 21.0625 0.28125 C 20.039062 0.28125 19.222656 -0.0195312 18.609375 -0.625 C 17.992188 -1.226562 17.6875 -1.898438 17.6875 -2.640625 L 17.6875 -2.6875 C 16.820312 -1.726562 15.796875 -0.960938 14.609375 -0.390625 C 13.421875 0.179688 11.945312 0.46875 10.1875 0.46875 C 9.007812 0.46875 7.90625 0.304688 6.875 -0.015625 C 5.84375 -0.347656 4.941406 -0.835938 4.171875 -1.484375 C 3.398438 -2.128906 2.789062 -2.921875 2.34375 -3.859375 C 1.894531 -4.804688 1.671875 -5.894531 1.671875 -7.125 Z M 8.46875 -7.5 L 8.46875 -7.40625 C 8.46875 -6.445312 8.820312 -5.703125 9.53125 -5.171875 C 10.25 -4.648438 11.175781 -4.390625 12.3125 -4.390625 C 13.976562 -4.390625 15.3125 -4.789062 16.3125 -5.59375 C 17.320312 -6.40625 17.828125 -7.457031 17.828125 -8.75 L 17.828125 -10 C 17.203125 -10.28125 16.507812 -10.503906 15.75 -10.671875 C 15 -10.835938 14.191406 -10.921875 13.328125 -10.921875 C 11.816406 -10.921875 10.628906 -10.628906 9.765625 -10.046875 C 8.898438 -9.460938 8.46875 -8.613281 8.46875 -7.5 Z M 8.46875 -7.5 "/></g></g></g><g fill="#008ed1" fill-opacity="1"><g transform="translate(171.385132, 305.641211)"><g><path d="M 3.140625 -3.234375 L 3.140625 -21.578125 C 3.140625 -22.566406 3.476562 -23.398438 4.15625 -24.078125 C 4.84375 -24.753906 5.679688 -25.09375 6.671875 -25.09375 C 7.648438 -25.09375 8.476562 -24.753906 9.15625 -24.078125 C 9.84375 -23.398438 10.1875 -22.566406 10.1875 -21.578125 L 10.1875 -20.46875 C 10.707031 -21.664062 11.367188 -22.734375 12.171875 -23.671875 C 12.972656 -24.617188 13.898438 -25.09375 14.953125 -25.09375 C 16.035156 -25.09375 16.875 -24.765625 17.46875 -24.109375 C 18.070312 -23.460938 18.375 -22.648438 18.375 -21.671875 C 18.375 -20.742188 18.113281 -20.007812 17.59375 -19.46875 C 17.070312 -18.925781 16.453125 -18.5625 15.734375 -18.375 C 13.953125 -17.914062 12.582031 -17 11.625 -15.625 C 10.664062 -14.25 10.1875 -12.3125 10.1875 -9.8125 L 10.1875 -3.234375 C 10.1875 -2.253906 9.84375 -1.421875 9.15625 -0.734375 C 8.476562 -0.0546875 7.648438 0.28125 6.671875 0.28125 C 5.679688 0.28125 4.84375 -0.0546875 4.15625 -0.734375 C 3.476562 -1.421875 3.140625 -2.253906 3.140625 -3.234375 Z M 3.140625 -3.234375 "/></g></g></g><g fill="#008ed1" fill-opacity="1"><g transform="translate(190.733943, 305.641211)"><g><path d="M 4.90625 -25.09375 C 5.863281 -25.09375 6.613281 -24.851562 7.15625 -24.375 C 7.695312 -23.894531 8.085938 -23.300781 8.328125 -22.59375 L 13.65625 -8.1875 L 19.078125 -22.6875 C 19.316406 -23.300781 19.691406 -23.851562 20.203125 -24.34375 C 20.710938 -24.84375 21.429688 -25.09375 22.359375 -25.09375 C 23.285156 -25.09375 24.078125 -24.773438 24.734375 -24.140625 C 25.398438 -23.503906 25.734375 -22.710938 25.734375 -21.765625 C 25.734375 -21.453125 25.6875 -21.132812 25.59375 -20.8125 C 25.507812 -20.488281 25.4375 -20.25 25.375 -20.09375 L 17.78125 -2.546875 C 17.375 -1.648438 16.847656 -0.914062 16.203125 -0.34375 C 15.554688 0.226562 14.753906 0.515625 13.796875 0.515625 L 13.421875 0.515625 C 12.460938 0.515625 11.660156 0.238281 11.015625 -0.3125 C 10.367188 -0.875 9.84375 -1.617188 9.4375 -2.546875 L 1.859375 -20.09375 C 1.765625 -20.34375 1.675781 -20.601562 1.59375 -20.875 C 1.519531 -21.15625 1.484375 -21.46875 1.484375 -21.8125 C 1.484375 -22.644531 1.8125 -23.398438 2.46875 -24.078125 C 3.132812 -24.753906 3.945312 -25.09375 4.90625 -25.09375 Z M 4.90625 -25.09375 "/></g></g></g><g fill="#008ed1" fill-opacity="1"><g transform="translate(217.951894, 305.641211)"><g><path d="M 6.984375 -25.09375 C 7.972656 -25.09375 8.804688 -24.753906 9.484375 -24.078125 C 10.171875 -23.398438 10.515625 -22.566406 10.515625 -21.578125 L 10.515625 -3.234375 C 10.515625 -2.253906 10.171875 -1.421875 9.484375 -0.734375 C 8.804688 -0.0546875 7.972656 0.28125 6.984375 0.28125 C 6.003906 0.28125 5.171875 -0.0546875 4.484375 -0.734375 C 3.804688 -1.421875 3.46875 -2.253906 3.46875 -3.234375 L 3.46875 -21.578125 C 3.46875 -22.566406 3.804688 -23.398438 4.484375 -24.078125 C 5.171875 -24.753906 6.003906 -25.09375 6.984375 -25.09375 Z M 6.984375 -34.03125 C 8.097656 -34.03125 9.03125 -33.734375 9.78125 -33.140625 C 10.539062 -32.554688 10.921875 -31.753906 10.921875 -30.734375 L 10.921875 -30.65625 C 10.921875 -29.632812 10.539062 -28.820312 9.78125 -28.21875 C 9.03125 -27.613281 8.097656 -27.3125 6.984375 -27.3125 C 5.878906 -27.3125 4.945312 -27.613281 4.1875 -28.21875 C 3.4375 -28.820312 3.0625 -29.632812 3.0625 -30.65625 L 3.0625 -30.734375 C 3.0625 -31.753906 3.4375 -32.554688 4.1875 -33.140625 C 4.945312 -33.734375 5.878906 -34.03125 6.984375 -34.03125 Z M 6.984375 -34.03125 "/></g></g></g><g fill="#008ed1" fill-opacity="1"><g transform="translate(231.931183, 305.641211)"><g><path d="M 6.671875 -25.09375 C 7.648438 -25.09375 8.476562 -24.753906 9.15625 -24.078125 C 9.84375 -23.398438 10.1875 -22.566406 10.1875 -21.578125 L 10.1875 -21.296875 C 10.988281 -22.347656 11.957031 -23.273438 13.09375 -24.078125 C 14.238281 -24.878906 15.691406 -25.28125 17.453125 -25.28125 C 20.171875 -25.28125 22.253906 -24.46875 23.703125 -22.84375 C 25.148438 -21.226562 25.875 -18.96875 25.875 -16.0625 L 25.875 -3.234375 C 25.875 -2.253906 25.535156 -1.421875 24.859375 -0.734375 C 24.179688 -0.0546875 23.347656 0.28125 22.359375 0.28125 C 21.367188 0.28125 20.535156 -0.0546875 19.859375 -0.734375 C 19.179688 -1.421875 18.84375 -2.253906 18.84375 -3.234375 L 18.84375 -13.84375 C 18.84375 -17.207031 17.421875 -18.890625 14.578125 -18.890625 C 13.191406 -18.890625 12.113281 -18.460938 11.34375 -17.609375 C 10.570312 -16.765625 10.1875 -15.507812 10.1875 -13.84375 L 10.1875 -3.234375 C 10.1875 -2.253906 9.84375 -1.421875 9.15625 -0.734375 C 8.476562 -0.0546875 7.648438 0.28125 6.671875 0.28125 C 5.679688 0.28125 4.84375 -0.0546875 4.15625 -0.734375 C 3.476562 -1.421875 3.140625 -2.253906 3.140625 -3.234375 L 3.140625 -21.578125 C 3.140625 -22.566406 3.476562 -23.398438 4.15625 -24.078125 C 4.84375 -24.753906 5.679688 -25.09375 6.671875 -25.09375 Z M 6.671875 -25.09375 "/></g></g></g><g fill="#008ed1" fill-opacity="1"><g transform="translate(260.76924, 305.641211)"><g><path d="M 2.59375 -3.75 C 2.59375 -4.863281 2.96875 -5.796875 3.71875 -6.546875 C 4.476562 -7.304688 5.445312 -7.6875 6.625 -7.6875 C 7.789062 -7.6875 8.75 -7.304688 9.5 -6.546875 C 10.257812 -5.796875 10.640625 -4.863281 10.640625 -3.75 L 10.640625 -3.65625 C 10.640625 -2.539062 10.257812 -1.601562 9.5 -0.84375 C 8.75 -0.09375 7.789062 0.28125 6.625 0.28125 C 5.445312 0.28125 4.476562 -0.09375 3.71875 -0.84375 C 2.96875 -1.601562 2.59375 -2.539062 2.59375 -3.65625 Z M 2.59375 -3.75 "/></g></g></g><g clip-path="url(#643acccc64)"><g clip-path="url(#72978c61f1)"><path fill="#ff914d" d="M 219.945312 270.148438 L 229.203125 270.148438 L 229.203125 279.023438 L 219.945312 279.023438 Z M 219.945312 270.148438 " fill-opacity="1" fill-rule="nonzero"/></g></g></svg>