<svg xmlns="http://www.w3.org/2000/svg" xmlns:xlink="http://www.w3.org/1999/xlink" width="32" height="32" id="key"><defs><linearGradient id="a"><stop offset="0" stop-color="#ff1679"></stop><stop offset="1" stop-color="#ff770b"></stop></linearGradient><linearGradient id="b" x1="992.183" x2="1019.298" y1="516.081" y2="545.959" gradientTransform="translate(-1024.137 499.682) scale(1.02524)" gradientUnits="userSpaceOnUse" xlink:href="#a"></linearGradient></defs><g fill="#fff" transform="translate(9 -1028.362)"><rect width="32" height="32" x="-9" y="1028.362" fill="url(#b)" rx="6.763" ry="6.763"></rect><path d="M6.949 1037.363a.5.5 0 0 0-.002 0 .5.5 0 0 0-.074.012l-3.865.89a.5.5 0 0 0-.38.57l.866 5.11a.5.5 0 0 0 .492.416H5v7.668l2 1.332 2-1.332v-7.668h.984a.5.5 0 0 0 .492-.412l.895-5.11a.5.5 0 0 0-.381-.573l-3.893-.891a.5.5 0 0 0-.148-.014zm.037 1.014 3.318.76-.74 4.226H4.408l-.717-4.227 3.295-.76zm.014 1.011c-.817 0-1.492.672-1.492 1.489 0 .817.675 1.486 1.492 1.486s1.492-.67 1.492-1.486c0-.817-.675-1.489-1.492-1.489zm0 1c.279 0 .492.215.492.489a.481.481 0 0 1-.492.486.481.481 0 0 1-.492-.486c0-.274.213-.489.492-.489zm-1 3.975h2v1H7v1h1v1H7v1h1v1H7v1h1v1.133l-1 .666-1-.666v-7.133z" color="#000" font-family="sans-serif" font-weight="400" overflow="visible" style="text-indent:0;text-align:start;line-height:normal;text-transform:none;block-progression:tb"></path></g></svg>